<svg width="18" height="17" viewBox="0 0 18 17" fill="none" xmlns="http://www.w3.org/2000/svg">
<g id="fi-rr-angle-small-down" opacity="0.7">
<path id="Vector" d="M4.56972 11.1846C4.63518 11.251 4.71305 11.3037 4.79886 11.3396C4.88466 11.3756 4.97669 11.3941 5.06964 11.3941C5.1626 11.3941 5.25463 11.3756 5.34043 11.3396C5.42623 11.3037 5.50411 11.251 5.56957 11.1846L8.79442 7.94042C8.85988 7.87403 8.93776 7.82133 9.02356 7.78537C9.10936 7.74941 9.20139 7.7309 9.29435 7.7309C9.3873 7.7309 9.47933 7.74941 9.56513 7.78537C9.65094 7.82133 9.72881 7.87403 9.79427 7.94042L13.0191 11.1846C13.0846 11.251 13.1625 11.3037 13.2483 11.3396C13.3341 11.3756 13.4261 11.3941 13.519 11.3941C13.612 11.3941 13.704 11.3756 13.7898 11.3396C13.8756 11.3037 13.9535 11.251 14.019 11.1846C14.1501 11.0519 14.2237 10.8723 14.2237 10.6852C14.2237 10.4981 14.1501 10.3185 14.019 10.1858L10.7871 6.93459C10.391 6.53665 9.85412 6.31313 9.29435 6.31313C8.73457 6.31313 8.19769 6.53665 7.80162 6.93459L4.56972 10.1858C4.43858 10.3185 4.36497 10.4981 4.36497 10.6852C4.36497 10.8723 4.43858 11.0519 4.56972 11.1846V11.1846Z" fill="#8588DF"/>
</g>
</svg>
