<svg width="22" height="22" viewBox="0 0 22 22" fill="none" xmlns="http://www.w3.org/2000/svg">
<g id="fi-rr-shop">
<path id="Vector" d="M22 9.16681C22 9.09989 21.9926 9.03318 21.978 8.96789L20.7863 3.58889C20.5649 2.56794 19.9992 1.65415 19.1841 1.00075C18.369 0.347354 17.354 -0.00593065 16.3093 0.000137933H5.69063C4.64659 -0.00508734 3.63247 0.348583 2.8181 1.00191C2.00373 1.65524 1.43858 2.56856 1.2173 3.58889L0.0219631 8.96789C0.00730387 9.03318 -7.45019e-05 9.09989 -3.68917e-05 9.16681V10.0835C-0.000776465 10.9759 0.325308 11.8378 0.91663 12.5062V17.4168C0.918085 18.6319 1.40144 19.7969 2.26066 20.6561C3.11989 21.5153 4.28483 21.9987 5.49996 22.0001H16.5C17.7151 21.9987 18.88 21.5153 19.7393 20.6561C20.5985 19.7969 21.0818 18.6319 21.0833 17.4168V12.5062C21.6746 11.8378 22.0007 10.9759 22 10.0835V9.16681ZM1.8333 9.26672L3.00663 3.98672C3.13959 3.37462 3.47873 2.82675 3.96731 2.43478C4.45589 2.04282 5.06426 1.83054 5.69063 1.83347H6.41663V4.58347C6.41663 4.82659 6.51321 5.05974 6.68512 5.23165C6.85702 5.40356 7.09018 5.50014 7.3333 5.50014C7.57641 5.50014 7.80957 5.40356 7.98148 5.23165C8.15339 5.05974 8.24996 4.82659 8.24996 4.58347V1.83347H13.75V4.58347C13.75 4.82659 13.8465 5.05974 14.0184 5.23165C14.1904 5.40356 14.4235 5.50014 14.6666 5.50014C14.9097 5.50014 15.1429 5.40356 15.3148 5.23165C15.4867 5.05974 15.5833 4.82659 15.5833 4.58347V1.83347H16.3093C16.9357 1.83054 17.544 2.04282 18.0326 2.43478C18.5212 2.82675 18.8603 3.37462 18.9933 3.98672L20.1666 9.26672V10.0835C20.1666 10.5697 19.9735 11.036 19.6297 11.3798C19.2858 11.7237 18.8195 11.9168 18.3333 11.9168H17.4166C16.9304 11.9168 16.4641 11.7237 16.1203 11.3798C15.7765 11.036 15.5833 10.5697 15.5833 10.0835C15.5833 9.84036 15.4867 9.6072 15.3148 9.43529C15.1429 9.26338 14.9097 9.16681 14.6666 9.16681C14.4235 9.16681 14.1904 9.26338 14.0184 9.43529C13.8465 9.6072 13.75 9.84036 13.75 10.0835C13.75 10.5697 13.5568 11.036 13.213 11.3798C12.8692 11.7237 12.4029 11.9168 11.9166 11.9168H10.0833C9.59707 11.9168 9.13075 11.7237 8.78693 11.3798C8.44312 11.036 8.24996 10.5697 8.24996 10.0835C8.24996 9.84036 8.15339 9.6072 7.98148 9.43529C7.80957 9.26338 7.57641 9.16681 7.3333 9.16681C7.09018 9.16681 6.85702 9.26338 6.68512 9.43529C6.51321 9.6072 6.41663 9.84036 6.41663 10.0835C6.41663 10.5697 6.22348 11.036 5.87966 11.3798C5.53584 11.7237 5.06953 11.9168 4.5833 11.9168H3.66663C3.1804 11.9168 2.71408 11.7237 2.37027 11.3798C2.02645 11.036 1.8333 10.5697 1.8333 10.0835V9.26672ZM16.5 20.1668H5.49996C4.77062 20.1668 4.07114 19.8771 3.55542 19.3614C3.03969 18.8456 2.74996 18.1462 2.74996 17.4168V13.6337C3.04935 13.7112 3.35737 13.7504 3.66663 13.7501H4.5833C5.10379 13.7504 5.61836 13.6396 6.09259 13.4251C6.56683 13.2106 6.98982 12.8973 7.3333 12.5062C7.67677 12.8973 8.09976 13.2106 8.574 13.4251C9.04824 13.6396 9.5628 13.7504 10.0833 13.7501H11.9166C12.4371 13.7504 12.9517 13.6396 13.4259 13.4251C13.9002 13.2106 14.3232 12.8973 14.6666 12.5062C15.0101 12.8973 15.4331 13.2106 15.9073 13.4251C16.3816 13.6396 16.8961 13.7504 17.4166 13.7501H18.3333C18.6426 13.7504 18.9506 13.7112 19.25 13.6337V17.4168C19.25 18.1462 18.9602 18.8456 18.4445 19.3614C17.9288 19.8771 17.2293 20.1668 16.5 20.1668Z" fill="#ABB2F5"/>
</g>
</svg>
