<svg width="20" height="20" viewBox="0 0 20 20" fill="none" xmlns="http://www.w3.org/2000/svg">
<g id="fi-rr-list" clip-path="url(#clip0_2_3350)">
<path id="Vector" d="M5.83333 14.9997L19.1667 14.9997C19.3877 14.9997 19.5996 15.0875 19.7559 15.2438C19.9122 15.4 20 15.612 20 15.833C20 16.054 19.9122 16.266 19.7559 16.4223C19.5996 16.5786 19.3877 16.6664 19.1667 16.6664H5.83333C5.61232 16.6664 5.40036 16.5786 5.24408 16.4223C5.0878 16.266 5 16.054 5 15.833C5 15.612 5.0878 15.4 5.24408 15.2438C5.40036 15.0875 5.61232 14.9997 5.83333 14.9997Z" fill="#D0DDEA"/>
<path id="Vector_2" d="M19.1667 10.8335L5.83333 10.8335C5.61232 10.8335 5.40036 10.7457 5.24408 10.5894C5.0878 10.4332 5 10.2212 5 10.0002C5 9.77917 5.0878 9.56721 5.24408 9.41093C5.40036 9.25465 5.61232 9.16685 5.83333 9.16685L19.1667 9.16685C19.3877 9.16685 19.5996 9.25465 19.7559 9.41093C19.9122 9.56721 20 9.77917 20 10.0002C20 10.2212 19.9122 10.4332 19.7559 10.5894C19.5996 10.7457 19.3877 10.8335 19.1667 10.8335Z" fill="#D0DDEA"/>
<path id="Vector_3" d="M19.1667 4.99994L5.83333 4.99994C5.61232 4.99994 5.40036 4.91214 5.24408 4.75586C5.0878 4.59958 5 4.38762 5 4.1666C5 3.94559 5.0878 3.73362 5.24408 3.57734C5.40036 3.42106 5.61232 3.33326 5.83333 3.33326L19.1667 3.33326C19.3877 3.33326 19.5996 3.42106 19.7559 3.57734C19.9122 3.73362 20 3.94559 20 4.1666C20 4.38762 19.9122 4.59958 19.7559 4.75586C19.5996 4.91214 19.3877 4.99994 19.1667 4.99994Z" fill="#D0DDEA"/>
<path id="Vector_4" d="M1.66667 14.1666C2.58714 14.1666 3.33333 14.9128 3.33333 15.8333C3.33333 16.7538 2.58714 17.4999 1.66667 17.4999C0.746192 17.4999 0 16.7538 0 15.8333C0 14.9128 0.746192 14.1666 1.66667 14.1666Z" fill="#D0DDEA"/>
<path id="Vector_5" d="M1.66667 8.33302C2.58714 8.33302 3.33333 9.07921 3.33333 9.99969C3.33333 10.9202 2.58714 11.6664 1.66667 11.6664C0.746192 11.6664 0 10.9202 0 9.99969C0 9.07921 0.746192 8.33302 1.66667 8.33302Z" fill="#D0DDEA"/>
<path id="Vector_6" d="M1.66667 2.50021C2.58714 2.50021 3.33333 3.24641 3.33333 4.16688C3.33333 5.08735 2.58714 5.83354 1.66667 5.83354C0.746192 5.83354 0 5.08735 0 4.16688C0 3.24641 0.746192 2.50021 1.66667 2.50021Z" fill="#D0DDEA"/>
</g>
<defs>
<clipPath id="clip0_2_3350">
<rect width="20" height="20" fill="white" transform="matrix(1 0 0 -1 0 19.9999)"/>
</clipPath>
</defs>
</svg>
