<svg width="18" height="14" viewBox="0 0 18 14" fill="none" xmlns="http://www.w3.org/2000/svg">
<g id="Group 2239">
<path id="Vector" d="M0.75 3.56245H2.802C2.96298 4.15471 3.31438 4.67754 3.80199 5.05029C4.28961 5.42305 4.88634 5.625 5.50012 5.625C6.11391 5.625 6.71064 5.42305 7.19826 5.05029C7.68587 4.67754 8.03727 4.15471 8.19825 3.56245H17.25C17.4489 3.56245 17.6397 3.48344 17.7803 3.34279C17.921 3.20215 18 3.0114 18 2.8125C18 2.6136 17.921 2.42285 17.7803 2.28221C17.6397 2.14156 17.4489 2.06255 17.25 2.06255H8.19825C8.03727 1.47029 7.68587 0.947458 7.19826 0.574706C6.71064 0.201954 6.11391 0 5.50012 0C4.88634 0 4.28961 0.201954 3.80199 0.574706C3.31438 0.947458 2.96298 1.47029 2.802 2.06255H0.75C0.551088 2.06255 0.360322 2.14156 0.21967 2.28221C0.0790176 2.42285 0 2.6136 0 2.8125C0 3.0114 0.0790176 3.20215 0.21967 3.34279C0.360322 3.48344 0.551088 3.56245 0.75 3.56245V3.56245ZM5.49975 1.50009C5.75934 1.50009 6.0131 1.57706 6.22894 1.72127C6.44478 1.86548 6.613 2.07045 6.71234 2.31026C6.81168 2.55007 6.83767 2.81396 6.78703 3.06854C6.73639 3.32312 6.61138 3.55697 6.42783 3.74051C6.24427 3.92406 6.01041 4.04905 5.75581 4.09969C5.50121 4.15033 5.23731 4.12434 4.99748 4.02501C4.75765 3.92568 4.55267 3.75746 4.40845 3.54164C4.26423 3.32581 4.18725 3.07207 4.18725 2.8125C4.18765 2.46455 4.32606 2.13096 4.57211 1.88492C4.81817 1.63889 5.15178 1.50049 5.49975 1.50009V1.50009Z" fill="#ABB2F5"/>
<path id="Vector_2" d="M17.25 9.56278H15.198C15.0373 8.97054 14.686 8.44765 14.1985 8.07484C13.7109 7.70203 13.1141 7.50003 12.5002 7.50003C11.8864 7.50003 11.2896 7.70203 10.802 8.07484C10.3145 8.44765 9.96321 8.97054 9.8025 9.56278H0.75C0.551088 9.56278 0.360322 9.64177 0.21967 9.78238C0.0790176 9.92298 0 10.1137 0 10.3125C0 10.5114 0.0790176 10.7021 0.21967 10.8427C0.360322 10.9833 0.551088 11.0623 0.75 11.0623H9.8025C9.96321 11.6545 10.3145 12.1774 10.802 12.5502C11.2896 12.923 11.8864 13.125 12.5002 13.125C13.1141 13.125 13.7109 12.923 14.1985 12.5502C14.686 12.1774 15.0373 11.6545 15.198 11.0623H17.25C17.4489 11.0623 17.6397 10.9833 17.7803 10.8427C17.921 10.7021 18 10.5114 18 10.3125C18 10.1137 17.921 9.92298 17.7803 9.78238C17.6397 9.64177 17.4489 9.56278 17.25 9.56278ZM12.5002 11.6246C12.2407 11.6246 11.9869 11.5476 11.7711 11.4035C11.5552 11.2593 11.387 11.0544 11.2877 10.8146C11.1883 10.5749 11.1623 10.3111 11.213 10.0566C11.2636 9.80204 11.3886 9.56825 11.5722 9.38476C11.7557 9.20126 11.9896 9.0763 12.2442 9.02567C12.4988 8.97505 12.7627 9.00103 13.0025 9.10034C13.2424 9.19965 13.4473 9.36782 13.5916 9.58358C13.7358 9.79935 13.8127 10.053 13.8127 10.3125C13.8124 10.6604 13.6739 10.9939 13.4279 11.2399C13.1818 11.4858 12.8482 11.6242 12.5002 11.6246V11.6246Z" fill="#ABB2F5"/>
</g>
</svg>
