<svg width="88" height="64" viewBox="0 0 88 64" fill="none" xmlns="http://www.w3.org/2000/svg">
<g id="Mask Group" opacity="0.4">
<mask id="mask0_3_4094" style="mask-type:alpha" maskUnits="userSpaceOnUse" x="0" y="0" width="88" height="64">
<rect id="Rectangle 417" x="0.569519" width="87.4305" height="64" fill="#808BF0"/>
</mask>
<g mask="url(#mask0_3_4094)">
<path id="%" d="M34.3468 62.2466H21.8734L70.3682 2.91067H82.8416L34.3468 62.2466ZM22.806 38.3439C16.2001 38.3439 11.032 36.7167 7.30166 33.4623C3.57129 30.208 1.7061 25.7753 1.7061 20.1644C1.7061 14.4973 3.57129 10.0646 7.30166 6.8664C11.1097 3.66815 16.2779 2.06903 22.806 2.06903C29.4118 2.06903 34.58 3.69621 38.3103 6.95057C42.0407 10.2049 43.9059 14.6095 43.9059 20.1644C43.9059 25.7753 42.0407 30.208 38.3103 33.4623C34.58 36.7167 29.4118 38.3439 22.806 38.3439ZM22.806 31.6107C25.6815 31.6107 27.8964 30.6849 29.4507 28.8333C31.0827 26.9817 31.8988 24.092 31.8988 20.1644C31.8988 16.1806 31.0827 13.319 29.4507 11.5796C27.8964 9.7841 25.6815 8.88635 22.806 8.88635C19.9305 8.88635 17.6767 9.75605 16.0447 11.4954C14.4904 13.2348 13.7132 16.1245 13.7132 20.1644C13.7132 24.2043 14.4904 27.122 16.0447 28.9175C17.6767 30.713 19.9305 31.6107 22.806 31.6107ZM81.909 63.0882C75.3031 63.0882 70.135 61.461 66.4047 58.2067C62.6743 54.8962 60.8091 50.4355 60.8091 44.8245C60.8091 39.1575 62.6743 34.7529 66.4047 31.6107C70.2127 28.4125 75.3809 26.8134 81.909 26.8134C88.5148 26.8134 93.683 28.4405 97.4133 31.6949C101.144 34.8931 103.009 39.2697 103.009 44.8245C103.009 50.4355 101.144 54.8962 97.4133 58.2067C93.683 61.461 88.5148 63.0882 81.909 63.0882ZM81.909 56.2709C84.7845 56.2709 86.9994 55.3731 88.5537 53.5776C90.1857 51.726 91.0018 48.8083 91.0018 44.8245C91.0018 40.8408 90.1857 37.9792 88.5537 36.2398C86.9994 34.4443 84.7845 33.5465 81.909 33.5465C79.0335 33.5465 76.7797 34.4443 75.1477 36.2398C73.5934 37.9792 72.8162 40.8408 72.8162 44.8245C72.8162 48.8644 73.5934 51.7821 75.1477 53.5776C76.7797 55.3731 79.0335 56.2709 81.909 56.2709Z" fill="#E3EBF4"/>
</g>
</g>
</svg>
