<svg width="15" height="8" viewBox="0 0 15 8" fill="none" xmlns="http://www.w3.org/2000/svg">
<path id="Vector" d="M13.9163 1.0145C13.8233 0.924501 13.7127 0.853066 13.5909 0.804317C13.469 0.755567 13.3383 0.730469 13.2064 0.730469C13.0744 0.730469 12.9437 0.755567 12.8218 0.804317C12.7 0.853066 12.5894 0.924501 12.4964 1.0145L7.91695 5.41233C7.824 5.50234 7.71341 5.57377 7.59156 5.62252C7.46972 5.67127 7.33903 5.69637 7.20703 5.69637C7.07503 5.69637 6.94434 5.67127 6.8225 5.62252C6.70065 5.57377 6.59006 5.50234 6.49711 5.41233L1.91763 1.0145C1.82468 0.924501 1.71409 0.853066 1.59224 0.804317C1.4704 0.755567 1.33971 0.730469 1.20771 0.730469C1.07571 0.730469 0.945023 0.755567 0.823177 0.804317C0.701332 0.853066 0.590743 0.924501 0.497791 1.0145C0.311561 1.19441 0.207031 1.43778 0.207031 1.69146C0.207031 1.94514 0.311561 2.18851 0.497791 2.36842L5.08727 6.77585C5.64971 7.31531 6.41212 7.61832 7.20703 7.61832C8.00194 7.61832 8.76435 7.31531 9.32679 6.77585L13.9163 2.36842C14.1025 2.18851 14.207 1.94514 14.207 1.69146C14.207 1.43778 14.1025 1.19441 13.9163 1.0145V1.0145Z" fill="#ABB2F5"/>
</svg>
